<svg xmlns="http://www.w3.org/2000/svg" xmlns:xlink="http://www.w3.org/1999/xlink" viewBox="0 0 235.63 170.71"><defs><style>.cls-1,.cls-3{fill:#e63a42;}.cls-1,.cls-2{opacity:0.45;}.cls-1{isolation:isolate;}.cls-4{fill:#f6c017;}.cls-5{fill:#fff;}.cls-6{fill:#139090;}.cls-7{fill:url(#linear-gradient);}.cls-8{fill:url(#linear-gradient-2);}.cls-9{fill:url(#linear-gradient-3);}.cls-10{fill:url(#linear-gradient-4);}.cls-11{fill:#e62e38;}.cls-12{fill:#4f2e15;}.cls-13{fill:#f4951e;}.cls-14{fill:url(#radial-gradient);}.cls-15{fill:#147f80;}.cls-16{fill:url(#linear-gradient-5);}.cls-17{fill:url(#linear-gradient-6);}</style><linearGradient id="linear-gradient" x1="41.81" y1="-473.35" x2="231.61" y2="-582.78" gradientTransform="matrix(1, 0, 0, -1, 0, -465.11)" gradientUnits="userSpaceOnUse"><stop offset="0" stop-color="#fff" stop-opacity="0"/><stop offset="1" stop-color="#fff"/></linearGradient><linearGradient id="linear-gradient-2" x1="20.38" y1="-532.1" x2="159.21" y2="-612.14" xlink:href="#linear-gradient"/><linearGradient id="linear-gradient-3" x1="35.19" y1="-527.85" x2="118" y2="-527.85" gradientTransform="matrix(1, 0, 0, -1, 0, -465.11)" gradientUnits="userSpaceOnUse"><stop offset="0.04" stop-color="#f6c017"/><stop offset="1" stop-color="#f6c017" stop-opacity="0"/></linearGradient><linearGradient id="linear-gradient-4" x1="73.71" y1="-551.95" x2="149.86" y2="-551.95" xlink:href="#linear-gradient-3"/><radialGradient id="radial-gradient" cx="86.5" cy="-481.97" r="103.98" gradientTransform="matrix(1, 0, 0, -1, 0, -465.11)" gradientUnits="userSpaceOnUse"><stop offset="0" stop-color="#6dacae"/><stop offset="1" stop-color="#139090"/></radialGradient><linearGradient id="linear-gradient-5" x1="76.45" y1="-590.24" x2="32.4" y2="-649.41" gradientTransform="matrix(1, 0, 0, -1, 0, -465.11)" gradientUnits="userSpaceOnUse"><stop offset="0" stop-color="#31b3b1"/><stop offset="1" stop-color="#31b3b1" stop-opacity="0"/></linearGradient><linearGradient id="linear-gradient-6" x1="94.26" y1="-598.87" x2="216.23" y2="-524.87" xlink:href="#linear-gradient-5"/></defs><g id="Layer_2" data-name="Layer 2"><g id="Layer_1-2" data-name="Layer 1"><path class="cls-1" d="M149.84,4.45h-1.15A1.65,1.65,0,0,1,147,2.8V1.65A1.65,1.65,0,0,1,148.69,0h1.15a1.65,1.65,0,0,1,1.65,1.65V2.8A1.65,1.65,0,0,1,149.84,4.45ZM157.7,9V7.86a1.65,1.65,0,0,0-1.65-1.65H154.9a1.65,1.65,0,0,0-1.65,1.65V9a1.65,1.65,0,0,0,1.65,1.65h1.15A1.65,1.65,0,0,0,157.7,9Zm-2.81-4.56H156a1.65,1.65,0,0,0,1.65-1.65V1.65A1.65,1.65,0,0,0,156,0h-1.15a1.65,1.65,0,0,0-1.65,1.65V2.8A1.65,1.65,0,0,0,154.89,4.45Zm-6.2,6.21h1.15A1.65,1.65,0,0,0,151.49,9V7.86a1.65,1.65,0,0,0-1.65-1.65h-1.15A1.65,1.65,0,0,0,147,7.86V9A1.65,1.65,0,0,0,148.69,10.66Z"/><path class="cls-1" d="M188.71,101.67h-3.26A4.69,4.69,0,0,1,180.76,97V93.72A4.69,4.69,0,0,1,185.45,89h3.26a4.69,4.69,0,0,1,4.69,4.69V97A4.69,4.69,0,0,1,188.71,101.67Z"/><g class="cls-2"><path class="cls-3" d="M9.46,75.24H6.2A5.52,5.52,0,0,1,.69,69.72V66.46A5.51,5.51,0,0,1,6.2,61H9.46A5.52,5.52,0,0,1,15,66.46v3.26A5.53,5.53,0,0,1,9.46,75.24ZM6.2,62.61a3.86,3.86,0,0,0-3.86,3.86v3.26A3.86,3.86,0,0,0,6.2,73.59H9.46a3.86,3.86,0,0,0,3.86-3.86V66.47a3.86,3.86,0,0,0-3.86-3.86Z"/></g><path class="cls-4" d="M25.23,96.24v7.83a1.5,1.5,0,0,0,1.5,1.5H39.65a1.5,1.5,0,0,0,1.5-1.5V96.24a1.5,1.5,0,0,0-1.5-1.5H26.73A1.5,1.5,0,0,0,25.23,96.24Zm8.5,3.74.17,2.39H32.48l.17-2.39a1.11,1.11,0,0,1-.55-1.06,1.1,1.1,0,0,1,2.19.11A1.12,1.12,0,0,1,33.73,100Z"/><path class="cls-4" d="M33.19,83.39h0a6,6,0,0,0-6,6v3h2.07v-3a3.92,3.92,0,0,1,7.84,0v5.36h2.07V89.38A6,6,0,0,0,33.19,83.39Z"/><path class="cls-4" d="M167.42,138l-2.57-.56a9.4,9.4,0,0,0-.81-2l1.42-2.21a.48.48,0,0,0-.06-.6l-2.07-2.07a.47.47,0,0,0-.6-.06L160.52,132a8.89,8.89,0,0,0-2-.81l-.56-2.57a.48.48,0,0,0-.47-.38h-2.92a.48.48,0,0,0-.47.38l-.56,2.57a9.4,9.4,0,0,0-2,.81l-2.21-1.42a.48.48,0,0,0-.6.06l-2.07,2.07a.48.48,0,0,0-.07.6l1.42,2.21a8.89,8.89,0,0,0-.81,2l-2.57.56a.48.48,0,0,0-.38.47v2.92a.48.48,0,0,0,.38.47l2.57.56a9.4,9.4,0,0,0,.81,2l-1.42,2.21a.47.47,0,0,0,.07.6l2.07,2.07a.47.47,0,0,0,.6.06l2.21-1.42a8.89,8.89,0,0,0,2,.81l.56,2.57a.48.48,0,0,0,.47.38h2.92a.48.48,0,0,0,.47-.38l.56-2.57a9.4,9.4,0,0,0,2-.81l2.21,1.42a.5.5,0,0,0,.26.08.48.48,0,0,0,.34-.14l2.07-2.07a.47.47,0,0,0,.06-.6L164,144.37a8.89,8.89,0,0,0,.81-2l2.57-.56a.48.48,0,0,0,.38-.47v-2.92A.48.48,0,0,0,167.42,138Zm-5.2,1.93a6.17,6.17,0,1,1-6.17-6.17A6.18,6.18,0,0,1,162.22,139.92Z"/><path class="cls-5" d="M171.73,116.31a5.23,5.23,0,0,0-.48-1,7.14,7.14,0,0,0-.65-.88l.52-1.73a.92.92,0,0,0-.43-1.06l-1.74-1a.89.89,0,0,0-1.12.2l-1.19,1.36a6.65,6.65,0,0,0-2.18,0L163.22,111a.91.91,0,0,0-1.13-.16l-1.71,1a.9.9,0,0,0-.39,1.07l.58,1.71a6.6,6.6,0,0,0-1.06,1.9l-1.76.41a.9.9,0,0,0-.7.9l0,2a.92.92,0,0,0,.73.88l1.77.35a5.93,5.93,0,0,0,.48,1,5.72,5.72,0,0,0,.65.88l-.52,1.73a.92.92,0,0,0,.43,1.06l1.74,1a.9.9,0,0,0,.91,0,1.24,1.24,0,0,0,.22-.18l1.19-1.36a6.65,6.65,0,0,0,2.18,0l1.24,1.32a.91.91,0,0,0,1.13.16l1.71-1a.9.9,0,0,0,.39-1.07l-.58-1.71a6.6,6.6,0,0,0,1.06-1.9l1.76-.41a.85.85,0,0,0,.26-.11.9.9,0,0,0,.44-.8l0-2a.92.92,0,0,0-.73-.88Zm-4.28,5.34a3.45,3.45,0,1,1,1.18-4.74A3.46,3.46,0,0,1,167.45,121.65Z"/><g class="cls-2"><path class="cls-4" d="M42,27.55a1.63,1.63,0,0,1-1.63-1.63v-.75a1.63,1.63,0,1,1,3.26,0v.75A1.63,1.63,0,0,1,42,27.55Z"/><path class="cls-4" d="M35.45,30.27a1.64,1.64,0,0,1-1.16-.48l-.53-.53A1.63,1.63,0,0,1,36.07,27l.53.53a1.63,1.63,0,0,1,0,2.31A1.6,1.6,0,0,1,35.45,30.27Z"/><path class="cls-4" d="M32.73,36.84H32a1.63,1.63,0,1,1,0-3.26h.75a1.63,1.63,0,0,1,0,3.26Z"/><path class="cls-4" d="M34.92,43.93a1.64,1.64,0,0,1-1.16-2.79l.53-.53a1.63,1.63,0,0,1,2.31,2.31l-.53.53A1.6,1.6,0,0,1,34.92,43.93Z"/></g><path class="cls-6" d="M158.31,35.26,101.12,19.2,43.93,35.26s-7.73,81.29,57.19,115.62C166,116.55,158.31,35.26,158.31,35.26Z"/><path class="cls-7" d="M90.57,30.18c1.88-3.39,3.72-6.58,5.47-9.56L66.36,27.44c-2.2,3-4.45,6.34-6.72,10Z"/><path class="cls-8" d="M51.81,67.49c-1.74,4.15-6,3.37-7.65,8,2,6.93,10,23.57,13.51,30.66,1.17-3.77,2.39-7.5,3.66-11.16C58.06,87,53.15,74.71,51.81,67.49Z"/><path class="cls-4" d="M149.62,40.92,101.13,27.19,52.64,40.92s-6.55,69.49,48.49,98.83C156.17,110.41,149.62,40.92,149.62,40.92Z"/><path class="cls-9" d="M109.29,29.5l-8.16-2.31L91.11,30c-9.23,15.67-21.2,32.5-35.7,45.75a113.45,113.45,0,0,0,7.36,22.51C87.47,80.58,101.54,52.15,109.29,29.5Z"/><path class="cls-10" d="M149.62,40.92l-24.71-7C116,55,97.53,91,73.71,116.61a84.21,84.21,0,0,0,27.42,23.14C156.17,110.41,149.62,40.92,149.62,40.92Z"/><path class="cls-4" d="M80.11,124a83.89,83.89,0,0,0,13.36,11.14c12.12-6.38,28.21-16.31,37.88-22.4,9.1-13.27,13.8-27.84,16.18-40.39C135.26,83,101.68,111.34,80.11,124Z"/><path class="cls-11" d="M206.13,67.41c.17-1.15.35-2.29.62-3.42a44.75,44.75,0,0,1,2.8-8.27A24.42,24.42,0,0,1,212,51.5a22.09,22.09,0,0,1,1.89-2.35,27,27,0,0,1,2.3-2c.4-.34.82-.67,1.25-1a9,9,0,0,1,2.52-1.43c.61-.27,1.28-.44,1.88-.74a6.94,6.94,0,0,1,1.1-.42l.37-.12a31.48,31.48,0,0,1,3.81-1.14l.73-.18,1.29-.29c1.29-.28,2.59-.51,3.9-.66l.4-.07.13,0c.41-.12.54,0,.48.44-.17,1.14-.35,2.27-.61,3.39a43.67,43.67,0,0,1-2.81,8.18,23.27,23.27,0,0,1-7,8.77,21.55,21.55,0,0,1-6.22,3.32l-.28.09-.37.12A31.52,31.52,0,0,1,213,66.58l-.72.18-1.27.3a35.79,35.79,0,0,1-3.86.67l-.4.07-.13,0C206.19,68,206.07,67.86,206.13,67.41Z"/><path class="cls-3" d="M231.48,43a49,49,0,0,1-3.71,3.64c-1.35,1.21-2.79,2.31-4.22,3.43-.08.06-.16.16-.27.09s-.1-.17-.09-.28c0-.38.05-.76.07-1.14.08-1.66,0-3.31,0-5a31,31,0,0,1,3.67-1.1l.71-.17a40.34,40.34,0,0,1,5-.92A8.52,8.52,0,0,1,231.48,43Z"/><path class="cls-3" d="M222,44.51c0,.66,0,1.32,0,2,0,1.44-.05,2.87-.09,4.31a.56.56,0,0,1-.32.57,7.33,7.33,0,0,0-.78.5,13.07,13.07,0,0,1-2.9,1.38c-.24.08-.3,0-.32-.22,0-.42-.12-.84-.18-1.26-.21-1.58-.4-3.17-.76-4.73a11.22,11.22,0,0,1,1.49-1.1,18.45,18.45,0,0,1,3.67-1.67A.25.25,0,0,1,222,44.51Z"/><path class="cls-3" d="M215.64,48.33c.23,1.69.45,3.38.69,5.07,0,.3-.06.38-.32.44a2.4,2.4,0,0,0-1.61,1,.88.88,0,0,1-.6.33,5.79,5.79,0,0,0-1.36.35c-.54.27-.61.41-.53,1-.25.12-.38,0-.46-.22a5.17,5.17,0,0,0-.27-.75.45.45,0,0,1,.15-.61,11.06,11.06,0,0,0,1.26-1.3,14.45,14.45,0,0,0,2.14-4.1c.1-.27.2-.54.32-.8a2.34,2.34,0,0,1,.34-.54,1.14,1.14,0,0,1,.15-.16C215.64,48.12,215.63,48.24,215.64,48.33Z"/><path class="cls-12" d="M208.58,54.3a22.73,22.73,0,0,1,1.65-2.77c.35-.5.74-.94,1.13-1.41a15.14,15.14,0,0,1,1.36-1.62c.52-.46.93-1.07,1.42-1.57s1.14-1.09,1.75-1.59a14.68,14.68,0,0,1,3.05-1.7c1.14-.53,2.31-1,3.49-1.45a46.61,46.61,0,0,1,6.85-1.88c1.18-.23,2.36-.43,3.55-.6l1.74-.22c.43-.05,1.14-.29,1.06.39A48,48,0,0,1,234,48.17a38.83,38.83,0,0,1-3,7.51,38.49,38.49,0,0,1-4.45,5.88,16.89,16.89,0,0,1-5.06,3.67c-.18.09-.36.19-.54.27a49.43,49.43,0,0,1-15.78,4l-.35,0a.39.39,0,0,1-.24,0c-.29-.14,0-1.46.06-1.73.09-.68.19-1.35.31-2q.36-2,.9-4a41.51,41.51,0,0,1,2.57-7.1Zm-1.67,13.25.13,0c2.59-.55,5.22-.86,7.79-1.59a26.6,26.6,0,0,0,7.08-3.25A22.12,22.12,0,0,0,230.28,53,42.26,42.26,0,0,0,233,45.15c.25-1.08.43-2.17.59-3.26.1-.69-.56-.41-1-.34-.66.09-1.31.2-2,.31a61.48,61.48,0,0,0-7,1.78,25,25,0,0,0-4.58,1.8,21.46,21.46,0,0,0-5.83,5.17c-3.17,3.71-5,8.56-6.1,13.27-.25,1.08-.43,2.17-.59,3.26C206.39,67.55,206.51,67.66,206.91,67.55Z"/><path class="cls-13" d="M231.86,11.62c.55.39,2.88,8.18-.92,14.42S216.31,36.6,216.31,36.6a25.58,25.58,0,0,1,5.38-14.35A68.69,68.69,0,0,1,231.86,11.62Z"/><path class="cls-4" d="M221.7,22.25a72.3,72.3,0,0,1,9.52-10.09c-.58,3.67-4.12,13.4-14.5,21.11A25.76,25.76,0,0,1,221.7,22.25Z"/><path class="cls-12" d="M219.36,24.11l2.68-3.6a70.23,70.23,0,0,1,5.87-7.12A32.28,32.28,0,0,1,232,10c.32-.23.43-.16.6.16a10.75,10.75,0,0,1,1.27,4.07,25.53,25.53,0,0,1-.21,8.41,1.19,1.19,0,0,0-.05.26c0,.2-.23.44,0,.56l0,0a1.71,1.71,0,0,0-.23.13c-1.06,4-8.67,11.33-18.31,14.74-.45-.45.15-6.59,4.15-13.84C219.23,24.35,219.3,24.23,219.36,24.11Zm-2.31,11.82c.35.12,1-.4,1.29-.56.52-.3,1-.6,1.55-.91A61.1,61.1,0,0,0,227.17,29a29.13,29.13,0,0,0,2.48-2.49A10.1,10.1,0,0,0,231.48,24a10.49,10.49,0,0,0,.71-3.33,25.15,25.15,0,0,0,.1-4.16,35.56,35.56,0,0,0-.49-4c0-.16-.09-.26-.26-.11-.78.74-1.64,1.39-2.41,2.15a54.23,54.23,0,0,0-4.72,5.75c-1,1.34-2.1,2.64-3,4.07A30.66,30.66,0,0,0,219,29a30.51,30.51,0,0,0-1.61,4.53,13.22,13.22,0,0,0-.35,1.66c0,.18-.11.56.06.71Z"/><path class="cls-12" d="M208.22,7.84c3.19,0,5.67.7,7,2.39,7.26,9.45,6.05,21.23-48.88,69.51-5.53,4.86-11,9.4-16.29,13.68-7.7,21.14-22.11,43.3-48.89,57.46A101.11,101.11,0,0,1,82.19,138c-16.47,8.61-29.87,14.17-39,18.14-12,5.19-23.34,8.16-30.77,8.16-6.23,0-9.7-2.08-8.47-6.67,2.69-10.07,9.51-13.4,9.51-13.4s-6.28,3.6-7,12.63c-.17,2.27.9,3.49,3.59,3.49,7.24,0,26.16-8.9,63.88-30.43C38.64,91.22,44,35.26,44,35.26L101.14,19.2l57.19,16.06a145.54,145.54,0,0,1-3,39.46C179.1,55.11,195.18,38.24,202.44,30c11.76-13.4,9.8-16-.49-16-1,0-2,0-3.14.06-12.94.46-34.53,8.34-34.53,8.34S193.66,7.84,208.22,7.84m0-3.65c-15.24,0-44.35,14.31-45.59,14.92a3.65,3.65,0,0,0,2.87,6.69c.21-.08,21.2-7.69,33.41-8.12,1.15,0,2.14-.06,3-.06a21,21,0,0,1,4.73.37c-.42,1.12-1.9,3.79-7,9.57s-18.13,20-39,37.91a140.88,140.88,0,0,0,1.29-30.55,3.62,3.62,0,0,0-2.64-3.16L102.11,15.7a3.64,3.64,0,0,0-1-.14,3.7,3.7,0,0,0-1,.14L42.94,31.76a3.64,3.64,0,0,0-2.64,3.16,143.94,143.94,0,0,0,1.78,33.75c2.73,16.7,9.49,40.3,26.13,60.27-22,12.48-49.89,27.65-58.12,27.75.68-6.6,5.07-9.29,5.12-9.32a3.65,3.65,0,0,0-3.41-6.44c-.34.17-8.35,4.19-11.43,15.73A8.14,8.14,0,0,0,1.55,164c2,2.58,5.62,3.89,10.81,3.89,8.09,0,19.83-3.08,32.22-8.46l3.57-1.54c8.47-3.65,19.92-8.58,33.53-15.59A105.42,105.42,0,0,0,99.41,154.1a3.65,3.65,0,0,0,3.4,0c23.52-12.44,40.43-32.11,50.25-58.47,5.31-4.28,10.57-8.7,15.63-13.15,26.14-23,41.54-38.91,48.46-50.14,6.11-9.92,6.38-17.19.91-24.33-1.92-2.53-5.24-3.82-9.84-3.82Z"/><path class="cls-13" d="M40.91,134.61h0a9.7,9.7,0,0,0,1.62-2.67.08.08,0,0,0,0-.07l.09-.18a3.66,3.66,0,0,0,.18-.46,14.89,14.89,0,0,0,.92-2.49c.08-.28.16-.57.23-.86s.16-.73.24-1.09a5.89,5.89,0,0,0,.18-1,18.91,18.91,0,0,0,.33-2.59l.06-.87c0-.18,0-.37,0-.56,0-.4.06-.8.1-1.2a.17.17,0,0,0,0-.13.18.18,0,0,0-.13,0l-1.18.21-.55.07-.86.14a20.43,20.43,0,0,0-2.55.58,5.92,5.92,0,0,0-1,.27c-.35.11-.71.22-1.06.35l-.83.31a15.06,15.06,0,0,0-2.39,1.16,3.61,3.61,0,0,0-.44.22l-.42.26-.32.22a18.28,18.28,0,0,0-4.1,3.49,20.16,20.16,0,0,0-1.89,2.42A17,17,0,0,0,25,134.25a6.75,6.75,0,0,0-.26,1v0h0c0,.11,0,.22,0,.33-.19,1.78-.13,2.43,1.25,5.57,3.26,1.08,3.91,1.07,5.67.72l.32-.07h0a7.52,7.52,0,0,0,1-.36A16.85,16.85,0,0,0,36.84,139a21.17,21.17,0,0,0,2.23-2.11A20.65,20.65,0,0,0,40.91,134.61Zm-10.68.14c0-.06.05-.13.08-.19A1.54,1.54,0,0,0,30.23,134.75Z"/><path class="cls-4" d="M34.06,124.66c-.84,2.91-1.55,5.85-2.45,8.75,0,.09-.12.19,0,.31l.23-.25c1.82-2,3.65-4,5.48-6,.18-.2.35-.35.1-.62s-.08-.32-.06-.48.09-.45.15-.68c.34-1.22.69-2.43,1-3.65,0-.11.12-.22,0-.34-.35.11-.71.22-1.06.35l-.83.31a15.06,15.06,0,0,0-2.39,1.16A2.85,2.85,0,0,1,34.06,124.66Z"/><path class="cls-4" d="M30.33,134.49c.42-1.16.75-2.34,1.07-3.53.54-2,1.08-4.06,1.75-6.05.1-.3.34-.57.26-.92-.11.07-3.21,2.07-3.85,3.1-1,1.6-3.67,5.16-3.57,9a3.45,3.45,0,0,0,.58,1.37c1.26-.19,3.07-.92,3.26-1.63A11.47,11.47,0,0,1,30.33,134.49Z"/><path class="cls-4" d="M32.33,136.3c1.11-.52,2.26-1,3.42-1.39,2-.73,3.94-1.45,5.86-2.32.29-.13.53-.4.89-.34-.06.11-1.76,3.39-2.72,4.12-1.5,1.14-4.79,4.14-8.63,4.4a3.54,3.54,0,0,1-1.42-.45c.07-1.27.62-3.14,1.31-3.4A8.31,8.31,0,0,0,32.33,136.3Z"/><path class="cls-4" d="M39.49,121.8c-.32,1.11-.65,2.22-1,3.33-.11.4-.2.81-.3,1.22l.06,0,5.22-5.74-.55.07-.86.14a20.43,20.43,0,0,0-2.55.58C39.59,121.55,39.52,121.67,39.49,121.8Z"/><path class="cls-4" d="M41.63,131.54c-2.82,1.11-5.68,2.1-8.48,3.26-.09,0-.18.13-.31,0l.23-.25,5.47-6c.18-.2.31-.38.61-.15.13.1.32.05.48,0a5.67,5.67,0,0,0,.66-.22l3.54-1.37c.11,0,.21-.14.34-.06-.08.36-.15.73-.24,1.09s-.15.57-.23.86a15.83,15.83,0,0,1-.92,2.49A2.94,2.94,0,0,0,41.63,131.54Z"/><path class="cls-4" d="M44,125.87l-3.23,1.27c-.39.15-.79.28-1.18.41l0-.06,5.22-5.74c0,.19,0,.37,0,.56l-.06.87a20.37,20.37,0,0,1-.33,2.59A.64.64,0,0,0,44,125.87Z"/><path class="cls-12" d="M44.82,129.56a32,32,0,0,0,1.3-7.9,3.79,3.79,0,0,0-.32-2.15l-.08-.07-.08-.07a3.82,3.82,0,0,0-2.17-.12,31.46,31.46,0,0,0-7.74,2,21.23,21.23,0,0,0-8.49,6.48l-.3.35-.12.13a23.79,23.79,0,0,0-1.59,2.4,6.1,6.1,0,0,1-.29.57,11.17,11.17,0,0,0-1.28,3.21,7.61,7.61,0,0,0-.12,1.35.46.46,0,0,1-.06.25v.24a8,8,0,0,0,.08,1,20.78,20.78,0,0,0,1.31,5.13,20.46,20.46,0,0,0,5.23.82,7.91,7.91,0,0,0,1,0l.21,0h0a.52.52,0,0,1,.24-.09,8.65,8.65,0,0,0,1.33-.25A11.28,11.28,0,0,0,36,141.27c.18-.12.35-.24.54-.35a25.41,25.41,0,0,0,2.24-1.81l.12-.13c.11-.11.21-.23.32-.33A21.7,21.7,0,0,0,44.82,129.56Zm-8,9.42a16.85,16.85,0,0,1-3.92,2.53,5.59,5.59,0,0,1-1.42.44h0a6.23,6.23,0,0,1-1.08.06,20.15,20.15,0,0,1-4.53-.79,20.09,20.09,0,0,1-1.21-4.43,6.66,6.66,0,0,1,0-1.08h0a5.42,5.42,0,0,1,.31-1.46,17,17,0,0,1,2.15-4.14A21,21,0,0,1,29,127.69a18.28,18.28,0,0,1,4.1-3.49l.32-.22c.14-.09.27-.18.42-.26a3.61,3.61,0,0,1,.44-.22,16.46,16.46,0,0,1,2.39-1.16l.83-.31c.35-.13.71-.23,1.06-.35a5.68,5.68,0,0,1,1-.27,20.43,20.43,0,0,1,2.55-.58l.86-.14.55-.07,1.18-.21a.18.18,0,0,1,.13,0,.17.17,0,0,1,0,.13c0,.4-.07.8-.1,1.2a5.24,5.24,0,0,1,0,.56l-.06.87a20.37,20.37,0,0,1-.33,2.59,5.89,5.89,0,0,1-.18,1c-.08.36-.15.73-.24,1.09s-.15.57-.23.86a15.83,15.83,0,0,1-.92,2.49,3.66,3.66,0,0,1-.18.46c-.07.15-.15.29-.22.44s-.13.22-.19.34a18.33,18.33,0,0,1-3.09,4.41A24.64,24.64,0,0,1,36.86,139Z"/><path class="cls-12" d="M101.13,27.19l48.49,13.73s6.55,69.49-48.49,98.83c-55-29.35-48.49-98.83-48.49-98.83l48.49-13.73m0-3.65a3.7,3.7,0,0,0-1,.14L51.65,37.41A3.66,3.66,0,0,0,49,40.57a129.66,129.66,0,0,0,3.7,39.64C59.83,108.77,76,130.47,99.42,143a3.62,3.62,0,0,0,3.42,0c23.44-12.5,39.59-34.2,46.71-62.76a129.65,129.65,0,0,0,3.7-39.64,3.64,3.64,0,0,0-2.64-3.16L102.12,23.68a3.76,3.76,0,0,0-1-.14Z"/><path class="cls-6" d="M164.25,22.38s21.58-7.89,34.53-8.34S215.29,15.3,202.42,30,149,86.36,86.92,122.4,5.74,165.87,6.43,156.84s7-12.63,7-12.63-6.82,3.33-9.51,13.4,17.26,8,39.25-1.49S111.38,128,166.31,79.75s56.14-60.06,48.88-69.51S164.25,22.38,164.25,22.38Z"/><path class="cls-14" d="M184.14,53c22.19-23.71,28.24-33.4,26.32-35.76.07,2.36-2.41,6.3-8.05,12.72C189.54,44.62,149,86.35,86.91,122.39c-17.39,10.1-31.41,18-42.57,23.83C87.89,131.56,154.7,84.45,184.14,53Z"/><path class="cls-12" d="M117.45,59.17,124.89,67,93.73,98.59l-20-21,7.69-7.76L93.93,83l23.52-23.82m0-3.64a3.65,3.65,0,0,0-2.59,1.08L94,77.76,84,67.34a3.66,3.66,0,0,0-2.6-1.13h0a3.66,3.66,0,0,0-2.59,1.08l-7.69,7.76a3.64,3.64,0,0,0,0,5.08l20,21a3.67,3.67,0,0,0,2.61,1.13h0a3.64,3.64,0,0,0,2.6-1.09L127.5,69.52a3.65,3.65,0,0,0,0-5.08l-7.44-7.79a3.66,3.66,0,0,0-2.6-1.13Z"/><polygon class="cls-5" points="117.45 59.17 124.89 66.96 93.73 98.6 73.68 77.62 81.38 69.86 93.93 82.99 117.45 59.17"/><path class="cls-15" d="M43.14,156.11c22-9.54,68.23-28.08,123.16-76.37,51.21-45,55.73-58.29,50.23-67.54-.67,7.18-6.59,17.31-23.21,36.79C173.32,72.43,70.74,155.66,6.86,163l-.55.25C12.21,166,27.13,163.06,43.14,156.11Z"/><path class="cls-16" d="M12.72,170.71s40.6-3.43,68.56-23.58l6.3,3.08A109.79,109.79,0,0,1,55.28,166C40.16,170.34,12.72,170.71,12.72,170.71Z"/><path class="cls-17" d="M154.06,107.67c.39-2.7,3.48-10.43,3.48-10.43S180.07,80,197.72,60.8C197.72,60.8,178.53,91.06,154.06,107.67Z"/></g></g></svg>